<svg xmlns="http://www.w3.org/2000/svg" xmlns:xlink="http://www.w3.org/1999/xlink" viewBox="0 0 951.4 1495.87"><defs><style>.cls-1{fill:url(#linear-gradient);}.cls-2{fill:url(#linear-gradient-2);}.cls-3{fill:url(#linear-gradient-3);}.cls-4{fill:#525252;}</style><linearGradient id="linear-gradient" x1="367.72" y1="890.92" x2="888.12" y2="890.92" gradientUnits="userSpaceOnUse"><stop offset="0" stop-color="#525252"/><stop offset="0.36" stop-color="#8d8d8d"/><stop offset="1" stop-color="#fff"/></linearGradient><linearGradient id="linear-gradient-2" x1="0" y1="579.92" x2="887.51" y2="579.92" xlink:href="#linear-gradient"/><linearGradient id="linear-gradient-3" x1="4894.5" y1="4895.66" x2="5196.93" y2="4895.66" gradientTransform="translate(6943.74 4188.27) rotate(164.95)" gradientUnits="userSpaceOnUse"><stop offset="0" stop-color="#525252"/><stop offset="0.12" stop-color="#7a7a7a"/><stop offset="0.25" stop-color="#a3a3a3"/><stop offset="0.39" stop-color="#c4c4c4"/><stop offset="0.53" stop-color="#dedede"/><stop offset="0.68" stop-color="#f0f0f0"/><stop offset="0.83" stop-color="#fbfbfb"/><stop offset="1" stop-color="#fff"/></linearGradient></defs><title>aliado6</title><g id="Layer_2" data-name="Layer 2"><g id="Layer_3" data-name="Layer 3"><path class="cls-1" d="M821.55,820c-10.68-18.89-76.11-69.5-84.18-81.21-93.8-119.4,0-215.76,0-215.76L453.14,806.13q-9,8.13-17.13,17.06l-.25.26.16-.16a259,259,0,0,0-68.2,175.51c0,143.6,116.41,260,260,260s260-116.41,260-260C894,902.18,821.55,820,821.55,820Z"/><path class="cls-2" d="M443.13,75.68C702.35-159.85,1044.84,207.77,807.8,450L423,838.57S297,987,422.7,1159.84L50.78,787.92s-114.26-138.22,0-312Z"/><circle class="cls-3" cx="800.15" cy="770.21" r="151.21"/><path class="cls-4" d="M344.32,1441l-28.61-.24-.26,30.12-12.36-.1.62-71.09,45.16.39-.09,10L316,1409.7l-.18,21.15,28.61.24Z"/><path class="cls-4" d="M379.11,1472.36q-11.28-.1-18.23-7.26t-6.84-19v-1.47a31.81,31.81,0,0,1,3.18-14.11,23.23,23.23,0,0,1,8.65-9.62,22.81,22.81,0,0,1,12.33-3.36q10.8.11,16.62,7t5.71,19.53l0,4.79-34.52-.3q.48,6.56,4.28,10.39a13.13,13.13,0,0,0,9.61,3.89,16.06,16.06,0,0,0,13.34-6.47l6.34,6.15a21.3,21.3,0,0,1-8.53,7.28A26.52,26.52,0,0,1,379.11,1472.36Zm-1-45.28a10,10,0,0,0-7.91,3.35q-3,3.4-3.92,9.49l22.61.2v-.88q-.35-6-3.1-9A9.93,9.93,0,0,0,378.08,1427.08Z"/><path class="cls-4" d="M422.13,1471.75l-11.86-.1.64-75,11.87.11Z"/><path class="cls-4" d="M435.64,1405.31a6.29,6.29,0,0,1,1.78-4.52,6.55,6.55,0,0,1,5-1.77,6.64,6.64,0,0,1,5,1.85,6.26,6.26,0,0,1,1.72,4.56,6.08,6.08,0,0,1-1.79,4.45,6.69,6.69,0,0,1-5,1.74,6.62,6.62,0,0,1-4.94-1.82A6.18,6.18,0,0,1,435.64,1405.31Zm12,66.66-11.87-.1.46-52.83,11.86.1Z"/><path class="cls-4" d="M507.07,1446.6q-.1,12.26-5.74,19.51a17.79,17.79,0,0,1-15,7.17q-8.68-.08-13.87-5.83l-.21,25-11.87-.1.63-73.15,10.94.1.44,5.37q5.28-6.3,14.27-6.22,9.66.07,15.09,7.33t5.33,20Zm-11.81-1.12q.08-7.92-3-12.58a10.22,10.22,0,0,0-9-4.71c-4.85,0-8.35,1.93-10.5,5.91l-.2,23.44q3.17,6.18,10.49,6.24a10.21,10.21,0,0,0,8.9-4.49Q495.18,1454.76,495.26,1445.48Z"/><path class="cls-4" d="M540.14,1473.74q-11.28-.09-18.23-7.26t-6.84-19V1446a31.74,31.74,0,0,1,3.18-14.11,23.23,23.23,0,0,1,8.65-9.62,22.64,22.64,0,0,1,12.33-3.36q10.8.09,16.62,7t5.71,19.53l0,4.79L527,1450a15.89,15.89,0,0,0,4.28,10.39,13.13,13.13,0,0,0,9.61,3.89,16.05,16.05,0,0,0,13.34-6.48l6.34,6.16a21.28,21.28,0,0,1-8.53,7.27A26.39,26.39,0,0,1,540.14,1473.74Zm-1-45.27a10,10,0,0,0-7.91,3.35q-3,3.39-3.92,9.49l22.61.19v-.88q-.35-6-3.1-9A9.93,9.93,0,0,0,539.11,1428.47Z"/><path class="cls-4" d="M623,1446.14l-13.77-.12-.24,27.34-12.35-.11.61-71.09,25,.22q12.3.11,18.95,5.68t6.55,16a20,20,0,0,1-3.55,11.92,21.86,21.86,0,0,1-9.66,7.32l15.72,29.74v.64L637,1473.6Zm-13.69-10.08,12.7.11q6.24,0,9.79-3.07a11,11,0,0,0,3.59-8.59q0-5.7-3.17-8.86t-9.66-3.31l-13-.11Z"/><path class="cls-4" d="M655.85,1446.86a31.15,31.15,0,0,1,3.2-14,22.4,22.4,0,0,1,8.72-9.5,24.36,24.36,0,0,1,12.82-3.23q10.7.09,17.3,7t7.05,18.32l0,2.79a31.35,31.35,0,0,1-3.12,13.94,22.18,22.18,0,0,1-8.68,9.44,24.47,24.47,0,0,1-12.94,3.26q-11.18-.09-17.83-7.6t-6.54-19.91Zm11.86,1.13q-.08,8.15,3.26,12.79a11,11,0,0,0,9.33,4.7,10.82,10.82,0,0,0,9.39-4.61q3.39-4.65,3.47-13.69.06-8-3.34-12.72a11.61,11.61,0,0,0-18.58-.24Q667.79,1438.81,667.71,1448Z"/><path class="cls-4" d="M730.21,1408.73l-.11,12.84,9.32.08-.07,8.79-9.33-.08-.25,29.49a6.47,6.47,0,0,0,1.15,4.38c.79.9,2.21,1.36,4.27,1.38a18.56,18.56,0,0,0,4.15-.45l-.08,9.18a29.52,29.52,0,0,1-7.82,1.05q-13.68-.12-13.54-15.2l.26-29.93-8.7-.08.08-8.79,8.69.08.11-12.84Z"/><path class="cls-4" d="M760.86,1421.83l-.5,57.52q-.08,8.1-4.13,12.34t-11.83,4.17a23.36,23.36,0,0,1-6.29-.88l.08-9.37a18.24,18.24,0,0,0,4.19.47c3.94,0,6-2.1,6.11-6.39l.5-58ZM748.08,1408a6.29,6.29,0,0,1,1.78-4.52,6.51,6.51,0,0,1,5-1.77,6.64,6.64,0,0,1,5,1.85,6.26,6.26,0,0,1,1.72,4.56,6.08,6.08,0,0,1-1.79,4.45,6.69,6.69,0,0,1-5,1.74,6.62,6.62,0,0,1-4.94-1.82A6.18,6.18,0,0,1,748.08,1408Z"/><path class="cls-4" d="M796.33,1476q-11.28-.09-18.23-7.26t-6.84-19v-1.47a31.81,31.81,0,0,1,3.18-14.11,23.21,23.21,0,0,1,8.65-9.61,22.74,22.74,0,0,1,12.33-3.37q10.8.11,16.62,7t5.71,19.54l0,4.78-34.52-.3q.48,6.55,4.28,10.39a13.13,13.13,0,0,0,9.61,3.89,16.06,16.06,0,0,0,13.34-6.47l6.35,6.15a21.4,21.4,0,0,1-8.54,7.28A26.52,26.52,0,0,1,796.33,1476Zm-1-45.27a10,10,0,0,0-7.91,3.35q-3,3.39-3.92,9.48l22.61.2v-.88q-.35-6-3.1-9A9.89,9.89,0,0,0,795.3,1430.68Z"/><path class="cls-4" d="M856.47,1461.13a5.37,5.37,0,0,0-2.57-4.85q-2.6-1.68-8.64-3a44.25,44.25,0,0,1-10.08-3.31q-8.85-4.37-8.78-12.52a14.07,14.07,0,0,1,5.86-11.38q5.79-4.53,14.69-4.46,9.46.08,15.26,4.82a14.87,14.87,0,0,1,5.73,12.21l-11.86-.11a7.32,7.32,0,0,0-2.49-5.71,9.75,9.75,0,0,0-6.72-2.33,10.54,10.54,0,0,0-6.39,1.76,5.71,5.71,0,0,0-2.51,4.81,4.84,4.84,0,0,0,2.26,4.27q2.28,1.53,9.25,3.13a44,44,0,0,1,10.93,3.75,15.55,15.55,0,0,1,5.87,5.16,12.93,12.93,0,0,1,1.86,7.24,13.77,13.77,0,0,1-6,11.5q-6,4.37-15.52,4.28a27.22,27.22,0,0,1-11.55-2.44,19.1,19.1,0,0,1-7.86-6.51,15.28,15.28,0,0,1-2.75-8.87l11.52.1a8.37,8.37,0,0,0,3.12,6.5,12.34,12.34,0,0,0,7.74,2.34q4.7,0,7.15-1.72A5.55,5.55,0,0,0,856.47,1461.13Z"/></g></g></svg>